<mxfile host="app.diagrams.net" modified="2021-12-19T14:22:36.292Z" agent="5.0 (Windows NT 10.0; Win64; x64) AppleWebKit/537.36 (KHTML, like Gecko) Chrome/96.0.4664.110 Safari/537.36" etag="Z-sYcI3dZGbNXaYaGUCq" version="16.0.0" type="github">
  <diagram id="jsNPLp2oiDDMKUl6fFHL" name="第 1 页">
    <mxGraphModel dx="-27330" dy="-38330" grid="1" gridSize="10" guides="1" tooltips="1" connect="1" arrows="1" fold="1" page="1" pageScale="1" pageWidth="9900" pageHeight="9900" math="0" shadow="0">
      <root>
        <mxCell id="0" />
        <mxCell id="1" parent="0" />
        <mxCell id="uHSLMij7m8tzwfFfGfbS-16" value="" style="rounded=0;whiteSpace=wrap;html=1;fillColor=#e1d5e7;strokeColor=#9673a6;" parent="1" vertex="1">
          <mxGeometry x="34830" y="43930" width="1420" height="870" as="geometry" />
        </mxCell>
        <mxCell id="uHSLMij7m8tzwfFfGfbS-17" value="&lt;font style=&quot;font-size: 47px&quot;&gt;IM&lt;/font&gt;" style="text;strokeColor=none;fillColor=none;html=1;fontSize=24;fontStyle=1;verticalAlign=middle;align=center;strokeWidth=5;" parent="1" vertex="1">
          <mxGeometry x="35300" y="43930" width="440" height="90" as="geometry" />
        </mxCell>
        <mxCell id="uHSLMij7m8tzwfFfGfbS-19" value="" style="rounded=0;whiteSpace=wrap;html=1;fillColor=#fff2cc;strokeColor=#d6b656;shadow=0;glass=0;sketch=0;" parent="1" vertex="1">
          <mxGeometry x="37135" y="43930" width="1420" height="870" as="geometry" />
        </mxCell>
        <mxCell id="uHSLMij7m8tzwfFfGfbS-20" value="&lt;span style=&quot;color: rgb(64 , 72 , 91) ; font-weight: 400 ; text-align: left&quot;&gt;&lt;font style=&quot;font-size: 50px&quot;&gt;实现功能所需引入的技术栈&lt;/font&gt;&lt;/span&gt;" style="text;strokeColor=none;fillColor=none;html=1;fontSize=24;fontStyle=1;verticalAlign=middle;align=center;rounded=0;shadow=0;glass=0;sketch=0;" parent="1" vertex="1">
          <mxGeometry x="37550" y="43890" width="590" height="170" as="geometry" />
        </mxCell>
        <mxCell id="uHSLMij7m8tzwfFfGfbS-21" value="&lt;font style=&quot;font-size: 31px&quot;&gt;KafKa&lt;br&gt;(消息队列)&lt;/font&gt;" style="rounded=1;whiteSpace=wrap;html=1;shadow=0;glass=0;labelBackgroundColor=none;sketch=0;fontSize=50;strokeWidth=3;fillColor=#f5f5f5;fontColor=#333333;strokeColor=default;" parent="1" vertex="1">
          <mxGeometry x="37230" y="44080" width="240" height="120" as="geometry" />
        </mxCell>
        <mxCell id="uHSLMij7m8tzwfFfGfbS-24" value="&lt;font style=&quot;font-size: 31px&quot;&gt;MySQL&lt;br&gt;(数据库)&lt;/font&gt;" style="rounded=1;whiteSpace=wrap;html=1;shadow=0;glass=0;labelBackgroundColor=none;sketch=0;fontSize=50;strokeWidth=3;fillColor=#f5f5f5;fontColor=#333333;strokeColor=default;" parent="1" vertex="1">
          <mxGeometry x="37580" y="44080" width="240" height="120" as="geometry" />
        </mxCell>
        <mxCell id="uHSLMij7m8tzwfFfGfbS-25" value="&lt;font style=&quot;font-size: 31px&quot;&gt;KafKa&lt;br&gt;(消息队列)&lt;/font&gt;" style="rounded=1;whiteSpace=wrap;html=1;shadow=0;glass=0;labelBackgroundColor=none;sketch=0;fontSize=50;strokeWidth=3;fillColor=#f5f5f5;fontColor=#333333;strokeColor=default;" parent="1" vertex="1">
          <mxGeometry x="37930" y="44080" width="240" height="120" as="geometry" />
        </mxCell>
        <mxCell id="uHSLMij7m8tzwfFfGfbS-26" value="&lt;font style=&quot;font-size: 31px&quot;&gt;ELK&lt;br&gt;(日志管理)&lt;/font&gt;" style="rounded=1;whiteSpace=wrap;html=1;shadow=0;glass=0;labelBackgroundColor=none;sketch=0;fontSize=50;strokeWidth=3;fillColor=#f5f5f5;fontColor=#333333;strokeColor=default;" parent="1" vertex="1">
          <mxGeometry x="38270" y="44080" width="240" height="120" as="geometry" />
        </mxCell>
        <mxCell id="uHSLMij7m8tzwfFfGfbS-27" value="&lt;font style=&quot;font-size: 31px&quot;&gt;Spring Cloud&lt;br&gt;(开发环境)&lt;/font&gt;" style="rounded=1;whiteSpace=wrap;html=1;shadow=0;glass=0;labelBackgroundColor=none;sketch=0;fontSize=50;strokeWidth=3;fillColor=#f5f5f5;fontColor=#333333;strokeColor=default;" parent="1" vertex="1">
          <mxGeometry x="37230" y="44300" width="240" height="120" as="geometry" />
        </mxCell>
        <mxCell id="uHSLMij7m8tzwfFfGfbS-28" value="&lt;font style=&quot;font-size: 31px&quot;&gt;Maven&lt;br&gt;(项目管理)&lt;/font&gt;" style="rounded=1;whiteSpace=wrap;html=1;shadow=0;glass=0;labelBackgroundColor=none;sketch=0;fontSize=50;strokeWidth=3;fillColor=#f5f5f5;fontColor=#333333;strokeColor=default;" parent="1" vertex="1">
          <mxGeometry x="37580" y="44300" width="240" height="120" as="geometry" />
        </mxCell>
        <mxCell id="uHSLMij7m8tzwfFfGfbS-29" value="&lt;font style=&quot;font-size: 31px&quot;&gt;KafKa&lt;br&gt;(消息队列)&lt;/font&gt;" style="rounded=1;whiteSpace=wrap;html=1;shadow=0;glass=0;labelBackgroundColor=none;sketch=0;fontSize=50;strokeWidth=3;fillColor=#f5f5f5;fontColor=#333333;strokeColor=default;" parent="1" vertex="1">
          <mxGeometry x="37930" y="44300" width="240" height="120" as="geometry" />
        </mxCell>
        <mxCell id="uHSLMij7m8tzwfFfGfbS-30" value="&lt;font style=&quot;font-size: 31px&quot;&gt;Redis&lt;br&gt;(分布式缓存)&lt;/font&gt;" style="rounded=1;whiteSpace=wrap;html=1;shadow=0;glass=0;labelBackgroundColor=none;sketch=0;fontSize=50;strokeWidth=3;fillColor=#f5f5f5;fontColor=#333333;strokeColor=default;" parent="1" vertex="1">
          <mxGeometry x="38270" y="44300" width="240" height="120" as="geometry" />
        </mxCell>
        <mxCell id="uHSLMij7m8tzwfFfGfbS-31" value="&lt;font style=&quot;font-size: 31px&quot;&gt;MyBatis&lt;br&gt;(ORM框架)&lt;/font&gt;" style="rounded=1;whiteSpace=wrap;html=1;shadow=0;glass=0;labelBackgroundColor=none;sketch=0;fontSize=50;strokeWidth=3;fillColor=#f5f5f5;fontColor=#333333;strokeColor=default;" parent="1" vertex="1">
          <mxGeometry x="37240" y="44540" width="270" height="140" as="geometry" />
        </mxCell>
        <mxCell id="uHSLMij7m8tzwfFfGfbS-32" value="&lt;font style=&quot;font-size: 31px&quot;&gt;Nacos&lt;br&gt;(分布式配置中心)&lt;/font&gt;" style="rounded=1;whiteSpace=wrap;html=1;shadow=0;glass=0;labelBackgroundColor=none;sketch=0;fontSize=50;strokeWidth=3;fillColor=#f5f5f5;fontColor=#333333;strokeColor=default;" parent="1" vertex="1">
          <mxGeometry x="37690" y="44540" width="340" height="140" as="geometry" />
        </mxCell>
        <mxCell id="uHSLMij7m8tzwfFfGfbS-34" value="&lt;font style=&quot;font-size: 31px&quot;&gt;Linux&lt;br&gt;(项目部署环境)&lt;/font&gt;" style="rounded=1;whiteSpace=wrap;html=1;shadow=0;glass=0;labelBackgroundColor=none;sketch=0;fontSize=50;strokeWidth=3;fillColor=#f5f5f5;fontColor=#333333;strokeColor=default;" parent="1" vertex="1">
          <mxGeometry x="38160" y="44540" width="310" height="140" as="geometry" />
        </mxCell>
        <mxCell id="uHSLMij7m8tzwfFfGfbS-35" value="" style="rounded=1;whiteSpace=wrap;html=1;shadow=0;glass=0;labelBackgroundColor=none;sketch=0;fontSize=31;strokeColor=#b85450;strokeWidth=3;fillColor=#f8cecc;dashed=1;" parent="1" vertex="1">
          <mxGeometry x="33925" y="45090" width="2450" height="1320" as="geometry" />
        </mxCell>
        <mxCell id="uHSLMij7m8tzwfFfGfbS-36" value="attention-common&lt;br&gt;(公共依赖模块)" style="rounded=1;whiteSpace=wrap;html=1;shadow=0;glass=0;labelBackgroundColor=none;sketch=0;fontSize=31;strokeColor=default;strokeWidth=3;fillColor=default;gradientColor=none;" parent="1" vertex="1">
          <mxGeometry x="35002.5" y="45715" width="295" height="90" as="geometry" />
        </mxCell>
        <mxCell id="uHSLMij7m8tzwfFfGfbS-38" value="&lt;font style=&quot;font-size: 40px&quot;&gt;一个四不像的 Spring Cloud 项目结构&lt;/font&gt;" style="text;strokeColor=none;fillColor=none;html=1;fontSize=24;fontStyle=1;verticalAlign=middle;align=center;rounded=1;shadow=0;glass=0;labelBackgroundColor=none;sketch=0;strokeWidth=5;" parent="1" vertex="1">
          <mxGeometry x="35070" y="45100" width="160" height="80" as="geometry" />
        </mxCell>
        <mxCell id="uHSLMij7m8tzwfFfGfbS-51" style="rounded=0;orthogonalLoop=1;jettySize=auto;html=1;fontSize=40;dashed=1;exitX=1.009;exitY=0.614;exitDx=0;exitDy=0;exitPerimeter=0;strokeWidth=3;" parent="1" source="uHSLMij7m8tzwfFfGfbS-40" target="uHSLMij7m8tzwfFfGfbS-36" edge="1">
          <mxGeometry relative="1" as="geometry" />
        </mxCell>
        <mxCell id="uHSLMij7m8tzwfFfGfbS-61" style="edgeStyle=none;rounded=0;orthogonalLoop=1;jettySize=auto;html=1;entryX=0;entryY=0.5;entryDx=0;entryDy=0;fontSize=40;endArrow=diamondThin;endFill=0;endSize=14;strokeWidth=3;" parent="1" source="uHSLMij7m8tzwfFfGfbS-40" target="uHSLMij7m8tzwfFfGfbS-46" edge="1">
          <mxGeometry relative="1" as="geometry" />
        </mxCell>
        <mxCell id="pK4Uwemm7jJ6McXWxiWu-2" style="edgeStyle=orthogonalEdgeStyle;rounded=0;orthogonalLoop=1;jettySize=auto;html=1;strokeWidth=3;endArrow=diamondThin;endFill=0;endSize=14;curved=1;entryX=0.25;entryY=0;entryDx=0;entryDy=0;" edge="1" parent="1" source="uHSLMij7m8tzwfFfGfbS-40" target="uHSLMij7m8tzwfFfGfbS-45">
          <mxGeometry relative="1" as="geometry">
            <Array as="points">
              <mxPoint x="34040" y="45330" />
              <mxPoint x="34040" y="46050" />
              <mxPoint x="34184" y="46050" />
            </Array>
          </mxGeometry>
        </mxCell>
        <mxCell id="uHSLMij7m8tzwfFfGfbS-40" value="attention-auth&lt;br&gt;(认证模块)" style="rounded=1;whiteSpace=wrap;html=1;shadow=0;glass=0;labelBackgroundColor=none;sketch=0;fontSize=31;strokeColor=default;strokeWidth=3;fillColor=default;gradientColor=none;" parent="1" vertex="1">
          <mxGeometry x="34180" y="45280" width="295" height="90" as="geometry" />
        </mxCell>
        <mxCell id="uHSLMij7m8tzwfFfGfbS-52" style="edgeStyle=none;rounded=0;orthogonalLoop=1;jettySize=auto;html=1;dashed=1;fontSize=40;strokeWidth=3;" parent="1" source="uHSLMij7m8tzwfFfGfbS-41" target="uHSLMij7m8tzwfFfGfbS-36" edge="1">
          <mxGeometry relative="1" as="geometry" />
        </mxCell>
        <mxCell id="uHSLMij7m8tzwfFfGfbS-41" value="attention-&lt;span style=&quot;box-sizing: inherit ; color: rgb(64 , 72 , 91) ; text-align: left&quot;&gt;&lt;font style=&quot;font-size: 31px&quot;&gt;communication&lt;/font&gt;&lt;/span&gt;&lt;br&gt;(netty+websocket 通信模块)" style="rounded=1;whiteSpace=wrap;html=1;shadow=0;glass=0;labelBackgroundColor=none;sketch=0;fontSize=31;strokeColor=default;strokeWidth=3;fillColor=default;gradientColor=none;" parent="1" vertex="1">
          <mxGeometry x="34955" y="45280" width="420" height="90" as="geometry" />
        </mxCell>
        <mxCell id="uHSLMij7m8tzwfFfGfbS-58" style="edgeStyle=none;rounded=0;orthogonalLoop=1;jettySize=auto;html=1;exitX=1;exitY=0.5;exitDx=0;exitDy=0;dashed=1;fontSize=40;strokeWidth=3;" parent="1" source="uHSLMij7m8tzwfFfGfbS-42" target="uHSLMij7m8tzwfFfGfbS-36" edge="1">
          <mxGeometry relative="1" as="geometry" />
        </mxCell>
        <mxCell id="uHSLMij7m8tzwfFfGfbS-42" value="attention-gateway&lt;br&gt;(网关模块)" style="rounded=1;whiteSpace=wrap;html=1;shadow=0;glass=0;labelBackgroundColor=none;sketch=0;fontSize=31;strokeColor=default;strokeWidth=3;fillColor=default;gradientColor=none;" parent="1" vertex="1">
          <mxGeometry x="34180" y="45715" width="295" height="90" as="geometry" />
        </mxCell>
        <mxCell id="uHSLMij7m8tzwfFfGfbS-53" style="edgeStyle=none;rounded=0;orthogonalLoop=1;jettySize=auto;html=1;entryX=1;entryY=0.5;entryDx=0;entryDy=0;dashed=1;fontSize=40;strokeWidth=3;" parent="1" source="uHSLMij7m8tzwfFfGfbS-43" target="uHSLMij7m8tzwfFfGfbS-36" edge="1">
          <mxGeometry relative="1" as="geometry" />
        </mxCell>
        <mxCell id="uHSLMij7m8tzwfFfGfbS-43" value="attention-server-api&lt;br&gt;(api接口模块)" style="rounded=1;whiteSpace=wrap;html=1;shadow=0;glass=0;labelBackgroundColor=none;sketch=0;fontSize=31;strokeColor=default;strokeWidth=3;fillColor=default;gradientColor=none;" parent="1" vertex="1">
          <mxGeometry x="35755" y="45280" width="295" height="90" as="geometry" />
        </mxCell>
        <mxCell id="uHSLMij7m8tzwfFfGfbS-59" style="edgeStyle=none;rounded=0;orthogonalLoop=1;jettySize=auto;html=1;entryX=0.5;entryY=1;entryDx=0;entryDy=0;dashed=1;fontSize=40;strokeWidth=3;endArrow=block;endFill=0;endSize=14;" parent="1" source="uHSLMij7m8tzwfFfGfbS-44" target="uHSLMij7m8tzwfFfGfbS-43" edge="1">
          <mxGeometry relative="1" as="geometry" />
        </mxCell>
        <mxCell id="uHSLMij7m8tzwfFfGfbS-60" style="edgeStyle=none;rounded=0;orthogonalLoop=1;jettySize=auto;html=1;entryX=1;entryY=0;entryDx=0;entryDy=0;dashed=1;fontSize=40;endArrow=diamondThin;endFill=1;endSize=14;strokeWidth=3;" parent="1" source="uHSLMij7m8tzwfFfGfbS-44" target="uHSLMij7m8tzwfFfGfbS-46" edge="1">
          <mxGeometry relative="1" as="geometry" />
        </mxCell>
        <mxCell id="uHSLMij7m8tzwfFfGfbS-44" value="attention-&lt;span style=&quot;box-sizing: inherit ; color: rgb(64 , 72 , 91) ; text-align: left&quot;&gt;&lt;font style=&quot;font-size: 31px&quot;&gt;server&lt;/font&gt;&lt;/span&gt;&lt;br&gt;(api接口实现模块)" style="rounded=1;whiteSpace=wrap;html=1;shadow=0;glass=0;labelBackgroundColor=none;sketch=0;fontSize=31;strokeColor=default;strokeWidth=3;fillColor=default;gradientColor=none;" parent="1" vertex="1">
          <mxGeometry x="35692.5" y="45715" width="420" height="90" as="geometry" />
        </mxCell>
        <mxCell id="uHSLMij7m8tzwfFfGfbS-57" style="edgeStyle=none;rounded=0;orthogonalLoop=1;jettySize=auto;html=1;exitX=1;exitY=0.5;exitDx=0;exitDy=0;entryX=0;entryY=1;entryDx=0;entryDy=0;dashed=1;fontSize=40;strokeWidth=3;" parent="1" source="uHSLMij7m8tzwfFfGfbS-45" target="uHSLMij7m8tzwfFfGfbS-36" edge="1">
          <mxGeometry relative="1" as="geometry" />
        </mxCell>
        <mxCell id="uHSLMij7m8tzwfFfGfbS-45" value="attention-support&lt;br&gt;(第三方模块 - (第三方Oss、消息队列...))" style="rounded=1;whiteSpace=wrap;html=1;shadow=0;glass=0;labelBackgroundColor=none;sketch=0;fontSize=31;strokeColor=default;strokeWidth=3;fillColor=default;gradientColor=none;" parent="1" vertex="1">
          <mxGeometry x="34040" y="46140" width="575" height="90" as="geometry" />
        </mxCell>
        <mxCell id="uHSLMij7m8tzwfFfGfbS-56" style="edgeStyle=none;rounded=0;orthogonalLoop=1;jettySize=auto;html=1;exitX=0.5;exitY=0;exitDx=0;exitDy=0;dashed=1;fontSize=40;strokeWidth=3;" parent="1" source="uHSLMij7m8tzwfFfGfbS-46" target="uHSLMij7m8tzwfFfGfbS-36" edge="1">
          <mxGeometry relative="1" as="geometry" />
        </mxCell>
        <mxCell id="uHSLMij7m8tzwfFfGfbS-46" value="attention-web&lt;br&gt;(业务模块)" style="rounded=1;whiteSpace=wrap;html=1;shadow=0;glass=0;labelBackgroundColor=none;sketch=0;fontSize=31;strokeColor=default;strokeWidth=3;fillColor=default;gradientColor=none;" parent="1" vertex="1">
          <mxGeometry x="35017.5" y="46140" width="295" height="90" as="geometry" />
        </mxCell>
        <mxCell id="uHSLMij7m8tzwfFfGfbS-55" style="edgeStyle=none;rounded=0;orthogonalLoop=1;jettySize=auto;html=1;entryX=1;entryY=1;entryDx=0;entryDy=0;dashed=1;fontSize=40;strokeWidth=3;" parent="1" source="uHSLMij7m8tzwfFfGfbS-48" target="uHSLMij7m8tzwfFfGfbS-36" edge="1">
          <mxGeometry relative="1" as="geometry" />
        </mxCell>
        <mxCell id="uHSLMij7m8tzwfFfGfbS-48" value="attention-logging&lt;br&gt;(日志模块)" style="rounded=1;whiteSpace=wrap;html=1;shadow=0;glass=0;labelBackgroundColor=none;sketch=0;fontSize=31;strokeColor=default;strokeWidth=3;fillColor=default;gradientColor=none;" parent="1" vertex="1">
          <mxGeometry x="35755" y="46140" width="295" height="90" as="geometry" />
        </mxCell>
        <mxCell id="uHSLMij7m8tzwfFfGfbS-64" style="edgeStyle=none;rounded=0;orthogonalLoop=1;jettySize=auto;html=1;entryX=0;entryY=0.5;entryDx=0;entryDy=0;fontSize=30;endArrow=openThin;endFill=0;endSize=14;strokeWidth=3;" parent="1" source="uHSLMij7m8tzwfFfGfbS-62" target="uHSLMij7m8tzwfFfGfbS-63" edge="1">
          <mxGeometry relative="1" as="geometry" />
        </mxCell>
        <mxCell id="uHSLMij7m8tzwfFfGfbS-62" value="" style="shape=actor;whiteSpace=wrap;html=1;rounded=1;shadow=0;glass=0;dashed=1;labelBackgroundColor=none;sketch=0;fontSize=40;strokeColor=#d79b00;strokeWidth=2;fillColor=#ffe6cc;" parent="1" vertex="1">
          <mxGeometry x="33060" y="47640" width="40" height="60" as="geometry" />
        </mxCell>
        <mxCell id="uHSLMij7m8tzwfFfGfbS-69" style="edgeStyle=none;rounded=0;orthogonalLoop=1;jettySize=auto;html=1;entryX=0;entryY=0.75;entryDx=0;entryDy=0;fontSize=30;endArrow=openThin;endFill=0;endSize=14;strokeWidth=3;" parent="1" source="uHSLMij7m8tzwfFfGfbS-63" target="uHSLMij7m8tzwfFfGfbS-65" edge="1">
          <mxGeometry relative="1" as="geometry" />
        </mxCell>
        <mxCell id="uHSLMij7m8tzwfFfGfbS-70" style="edgeStyle=none;rounded=0;orthogonalLoop=1;jettySize=auto;html=1;fontSize=30;endArrow=openThin;endFill=0;endSize=14;strokeWidth=3;" parent="1" source="uHSLMij7m8tzwfFfGfbS-63" target="uHSLMij7m8tzwfFfGfbS-66" edge="1">
          <mxGeometry relative="1" as="geometry" />
        </mxCell>
        <mxCell id="uHSLMij7m8tzwfFfGfbS-71" style="edgeStyle=none;rounded=0;orthogonalLoop=1;jettySize=auto;html=1;exitX=1;exitY=0.75;exitDx=0;exitDy=0;entryX=0;entryY=0.75;entryDx=0;entryDy=0;fontSize=30;endArrow=openThin;endFill=0;endSize=14;strokeWidth=3;" parent="1" source="uHSLMij7m8tzwfFfGfbS-63" target="uHSLMij7m8tzwfFfGfbS-67" edge="1">
          <mxGeometry relative="1" as="geometry" />
        </mxCell>
        <mxCell id="uHSLMij7m8tzwfFfGfbS-72" style="edgeStyle=none;rounded=0;orthogonalLoop=1;jettySize=auto;html=1;entryX=0;entryY=0.5;entryDx=0;entryDy=0;fontSize=30;endArrow=openThin;endFill=0;endSize=14;strokeWidth=3;" parent="1" source="uHSLMij7m8tzwfFfGfbS-63" target="uHSLMij7m8tzwfFfGfbS-68" edge="1">
          <mxGeometry relative="1" as="geometry" />
        </mxCell>
        <mxCell id="uHSLMij7m8tzwfFfGfbS-73" style="edgeStyle=none;rounded=0;orthogonalLoop=1;jettySize=auto;html=1;fontSize=30;endArrow=openThin;endFill=0;endSize=14;strokeWidth=3;" parent="1" source="uHSLMij7m8tzwfFfGfbS-63" edge="1">
          <mxGeometry relative="1" as="geometry">
            <mxPoint x="33310" y="47980" as="targetPoint" />
          </mxGeometry>
        </mxCell>
        <mxCell id="uHSLMij7m8tzwfFfGfbS-63" value="&lt;font style=&quot;font-size: 30px&quot;&gt;gateway&lt;/font&gt;" style="rounded=1;whiteSpace=wrap;html=1;shadow=0;glass=0;dashed=1;labelBackgroundColor=none;sketch=0;fontSize=40;strokeColor=default;strokeWidth=2;fillColor=default;gradientColor=none;" parent="1" vertex="1">
          <mxGeometry x="33230" y="47640" width="160" height="60" as="geometry" />
        </mxCell>
        <mxCell id="uHSLMij7m8tzwfFfGfbS-65" value="业务模块" style="shape=ext;double=1;rounded=1;whiteSpace=wrap;html=1;shadow=0;glass=0;dashed=1;labelBackgroundColor=none;sketch=0;fontSize=30;strokeColor=default;strokeWidth=2;fillColor=default;gradientColor=none;" parent="1" vertex="1">
          <mxGeometry x="33560" y="47445" width="150" height="70" as="geometry" />
        </mxCell>
        <mxCell id="uHSLMij7m8tzwfFfGfbS-66" value="日志模块" style="shape=ext;double=1;rounded=1;whiteSpace=wrap;html=1;shadow=0;glass=0;dashed=1;labelBackgroundColor=none;sketch=0;fontSize=30;strokeColor=default;strokeWidth=2;fillColor=default;gradientColor=none;" parent="1" vertex="1">
          <mxGeometry x="33560" y="47575" width="150" height="70" as="geometry" />
        </mxCell>
        <mxCell id="uHSLMij7m8tzwfFfGfbS-67" value="认证模块" style="shape=ext;double=1;rounded=1;whiteSpace=wrap;html=1;shadow=0;glass=0;dashed=1;labelBackgroundColor=none;sketch=0;fontSize=30;strokeColor=default;strokeWidth=2;fillColor=default;gradientColor=none;" parent="1" vertex="1">
          <mxGeometry x="33560" y="47695" width="150" height="70" as="geometry" />
        </mxCell>
        <mxCell id="uHSLMij7m8tzwfFfGfbS-68" value="支撑模块" style="shape=ext;double=1;rounded=1;whiteSpace=wrap;html=1;shadow=0;glass=0;dashed=1;labelBackgroundColor=none;sketch=0;fontSize=30;strokeColor=default;strokeWidth=2;fillColor=default;gradientColor=none;" parent="1" vertex="1">
          <mxGeometry x="33560" y="47825" width="150" height="70" as="geometry" />
        </mxCell>
        <mxCell id="tTsRB1gMMQqj2GkY541p-21" value="" style="group" parent="1" vertex="1" connectable="0">
          <mxGeometry x="33910" y="44940" width="1010" height="160" as="geometry" />
        </mxCell>
        <mxCell id="tTsRB1gMMQqj2GkY541p-20" value="" style="rounded=0;whiteSpace=wrap;html=1;fillColor=#ffe6cc;strokeColor=#d79b00;" parent="tTsRB1gMMQqj2GkY541p-21" vertex="1">
          <mxGeometry width="1010" height="160" as="geometry" />
        </mxCell>
        <mxCell id="tTsRB1gMMQqj2GkY541p-2" style="edgeStyle=none;rounded=0;orthogonalLoop=1;jettySize=auto;html=1;dashed=1;fontSize=40;strokeWidth=3;endArrow=block;endFill=0;endSize=14;" parent="tTsRB1gMMQqj2GkY541p-21" edge="1">
          <mxGeometry relative="1" as="geometry">
            <mxPoint x="120" y="50" as="sourcePoint" />
            <mxPoint x="190" y="50" as="targetPoint" />
          </mxGeometry>
        </mxCell>
        <mxCell id="tTsRB1gMMQqj2GkY541p-3" value="&lt;font style=&quot;font-size: 31px&quot;&gt;实现&lt;/font&gt;" style="text;html=1;strokeColor=none;fillColor=none;align=center;verticalAlign=middle;whiteSpace=wrap;rounded=0;" parent="tTsRB1gMMQqj2GkY541p-21" vertex="1">
          <mxGeometry x="120" y="70" width="90" height="40" as="geometry" />
        </mxCell>
        <mxCell id="tTsRB1gMMQqj2GkY541p-8" style="edgeStyle=none;rounded=0;orthogonalLoop=1;jettySize=auto;html=1;fontSize=40;endArrow=diamondThin;endFill=0;endSize=14;strokeWidth=3;" parent="tTsRB1gMMQqj2GkY541p-21" edge="1">
          <mxGeometry relative="1" as="geometry">
            <mxPoint x="360.0046511627952" y="50" as="sourcePoint" />
            <mxPoint x="450" y="50" as="targetPoint" />
          </mxGeometry>
        </mxCell>
        <mxCell id="tTsRB1gMMQqj2GkY541p-13" value="&lt;font style=&quot;font-size: 31px&quot;&gt;聚合&lt;/font&gt;" style="text;html=1;strokeColor=none;fillColor=none;align=center;verticalAlign=middle;whiteSpace=wrap;rounded=0;" parent="tTsRB1gMMQqj2GkY541p-21" vertex="1">
          <mxGeometry x="360" y="75" width="100" height="30" as="geometry" />
        </mxCell>
        <mxCell id="tTsRB1gMMQqj2GkY541p-16" style="rounded=0;orthogonalLoop=1;jettySize=auto;html=1;fontSize=40;dashed=1;exitX=1.009;exitY=0.614;exitDx=0;exitDy=0;exitPerimeter=0;strokeWidth=3;" parent="tTsRB1gMMQqj2GkY541p-21" edge="1">
          <mxGeometry relative="1" as="geometry">
            <mxPoint x="612.5049999999974" y="50" as="sourcePoint" />
            <mxPoint x="680" y="50" as="targetPoint" />
          </mxGeometry>
        </mxCell>
        <mxCell id="tTsRB1gMMQqj2GkY541p-17" value="&lt;font style=&quot;font-size: 31px&quot;&gt;依赖&lt;/font&gt;" style="text;html=1;strokeColor=none;fillColor=none;align=center;verticalAlign=middle;whiteSpace=wrap;rounded=0;" parent="tTsRB1gMMQqj2GkY541p-21" vertex="1">
          <mxGeometry x="590" y="75" width="110" height="30" as="geometry" />
        </mxCell>
        <mxCell id="tTsRB1gMMQqj2GkY541p-18" style="edgeStyle=none;rounded=0;orthogonalLoop=1;jettySize=auto;html=1;dashed=1;fontSize=40;endArrow=diamondThin;endFill=1;endSize=14;strokeWidth=3;" parent="tTsRB1gMMQqj2GkY541p-21" edge="1">
          <mxGeometry relative="1" as="geometry">
            <mxPoint x="840.0015789473691" y="50" as="sourcePoint" />
            <mxPoint x="930" y="50" as="targetPoint" />
          </mxGeometry>
        </mxCell>
        <mxCell id="tTsRB1gMMQqj2GkY541p-19" value="&lt;font style=&quot;font-size: 31px&quot;&gt;组合&lt;/font&gt;" style="text;html=1;strokeColor=none;fillColor=none;align=center;verticalAlign=middle;whiteSpace=wrap;rounded=0;" parent="tTsRB1gMMQqj2GkY541p-21" vertex="1">
          <mxGeometry x="830" y="75" width="120" height="30" as="geometry" />
        </mxCell>
      </root>
    </mxGraphModel>
  </diagram>
</mxfile>
